#define arrow_left_width 16
#define arrow_left_height 16
static unsigned short arrow_left_bits[] = {
   0x0000, 0x0000, 0x0100, 0x0180, 0x01c0, 0x01e0, 0x01f0, 0x01f8, 0x01f8,
   0x01f0, 0x01e0, 0x01c0, 0x0180, 0x0100, 0x0000, 0x0000 };
