#define arrow_right_width 16
#define arrow_right_height 16
static unsigned short arrow_right_bits[] = {
   0x0000, 0x0000, 0x0080, 0x0180, 0x0380, 0x0780, 0x0f80, 0x1f80, 0x1f80,
   0x0f80, 0x0780, 0x0380, 0x0180, 0x0080, 0x0000, 0x0000 };
